<?xml version="1.0" encoding="utf-8"?>
<!-- Generator: Adobe Illustrator 26.3.1, SVG Export Plug-In . SVG Version: 6.00 Build 0)  -->
<svg version="1.1" id="Layer_1" xmlns="http://www.w3.org/2000/svg" xmlns:xlink="http://www.w3.org/1999/xlink" x="0px" y="0px"
	 viewBox="0 0 332.26 214.68" style="enable-background:new 0 0 332.26 214.68;" xml:space="preserve">
<style type="text/css">
	.st0{fill:#FF86B4;}
	.st1{fill:#231F20;}
</style>
<g>
	<g>
		<path class="st0" d="M165.09,67.41c0.07,0.04,0.13,0.08,0.2,0.11c0.04,0.02,0.08,0.05,0.12,0.07c0.23,0.08,0.47,0.12,0.7,0.12
			c0,0,0.01,0,0.01,0c0,0,0,0,0,0c0,0,0,0,0,0c0,0,0.01,0,0.01,0c0.23,0,0.47-0.04,0.7-0.12c0.05-0.02,0.08-0.05,0.12-0.07
			c0.07-0.03,0.13-0.07,0.2-0.11c0.2-0.11,0.38-0.25,0.54-0.42c0.03-0.04,0.08-0.05,0.11-0.09l38.7-48.12
			c0.52-0.65,0.62-1.53,0.27-2.28c-0.36-0.75-1.11-1.22-1.94-1.22h-38.71c0,0,0,0,0,0c0,0,0,0,0,0h-38.71
			c-0.83,0-1.58,0.47-1.94,1.22c-0.36,0.75-0.26,1.63,0.26,2.28l38.71,48.12"/>
		<path class="st0" d="M293.81,53.46c5.63-3.73,9.36-10.12,9.36-17.36c0-11.48-9.33-20.81-20.81-20.82c0,0-0.01,0-0.01,0h-47.31
			c-1.19,0-2.15,0.96-2.15,2.15v96.25c0,1.19,0.96,2.15,2.15,2.15h47.28c0.01,0,0.02,0,0.04,0c17.78,0,32.25-14.47,32.25-32.25
			C314.6,69.83,305.94,58.09,293.81,53.46z"/>
		<path class="st0" d="M205.54,63.52c-0.87-0.3-1.82-0.03-2.39,0.68l-37.03,46.04L129.09,64.2c-0.58-0.71-1.54-0.99-2.39-0.68
			c-0.86,0.3-1.44,1.12-1.44,2.03v48.12c0,1.19,0.96,2.15,2.15,2.15h38.71h38.71c1.19,0,2.15-0.96,2.15-2.15V65.55
			C206.98,64.64,206.4,63.82,205.54,63.52z"/>
		<path class="st0" d="M97.22,15.28H58.52c-0.83,0-1.58,0.47-1.94,1.22c-0.36,0.75-0.26,1.63,0.26,2.28L95.54,66.9
			c0.42,0.52,1.04,0.8,1.68,0.8c0.24,0,0.48-0.04,0.72-0.12c0.86-0.3,1.44-1.12,1.44-2.03V17.43
			C99.37,16.24,98.41,15.28,97.22,15.28z"/>
		<path class="st0" d="M21.49,16.08c-0.57-0.71-1.54-0.98-2.39-0.68c-0.86,0.3-1.44,1.12-1.44,2.03v96.24
			c0,1.19,0.96,2.15,2.15,2.15h77.41c0.83,0,1.58-0.47,1.94-1.22c0.36-0.75,0.26-1.63-0.26-2.28L21.49,16.08z"/>
	</g>
	<g>
		<g>
			<g>
				<path class="st1" d="M17.68,152.04h2.34l11.9,17.11h0.05v-17.11h1.82v19.54h-2.35l-11.9-17.11H19.5v17.11h-1.82V152.04z"/>
				<path class="st1" d="M50.77,151.55c5.96,0,10.1,4.3,10.1,10.27c0,5.96-4.14,10.27-10.1,10.27c-5.96,0-10.1-4.31-10.1-10.27
					C40.67,155.85,44.81,151.55,50.77,151.55z M50.77,170.43c5.11,0,8.28-3.75,8.28-8.61s-3.17-8.61-8.28-8.61s-8.28,3.75-8.28,8.61
					S45.67,170.43,50.77,170.43z"/>
				<path class="st1" d="M67.75,152.04H79.7v1.66H69.57v6.95h9.49v1.66h-9.49v7.62h10.57v1.66H67.75V152.04z M70.65,147.07
					c0.74,0,1.32,0.58,1.32,1.33c0,0.74-0.58,1.32-1.32,1.32c-0.75,0-1.32-0.58-1.32-1.32C69.32,147.65,69.9,147.07,70.65,147.07z
					 M75.89,147.07c0.74,0,1.32,0.58,1.32,1.33c0,0.74-0.58,1.32-1.32,1.32c-0.75,0-1.33-0.58-1.33-1.32
					C74.57,147.65,75.15,147.07,75.89,147.07z"/>
				<path class="st1" d="M86.89,152.04h1.82v17.88h9.11v1.66H86.89V152.04z"/>
			</g>
		</g>
		<g>
			<path class="st1" d="M115.23,152.04h2.73l7.12,16.39l7.12-16.39h2.59v19.54h-1.82v-17.22h-0.05l-7.45,17.22h-0.8l-7.56-17.22
				h-0.05v17.22h-1.82V152.04z"/>
		</g>
		<g>
			<path class="st1" d="M149.21,152.04h1.88l8.22,19.54h-2.04l-2.12-5.19h-10.35l-2.21,5.19h-1.9L149.21,152.04z M150.06,154.03
				l-4.55,10.71h8.97L150.06,154.03z"/>
		</g>
		<g>
			<path class="st1" d="M165.42,152.04h5.13c1.55,0,6.96,0,6.96,5.13c0,3.73-2.84,4.75-5,5.02l5.69,9.38h-2.07l-5.49-9.27h-3.39
				v9.27h-1.82V152.04z M167.24,160.65h3.86c3.84,0,4.58-2.12,4.58-3.48c0-1.35-0.74-3.48-4.58-3.48h-3.86V160.65z"/>
			<path class="st1" d="M184.58,152.04h1.82v19.54h-1.82V152.04z"/>
			<path class="st1" d="M194.54,152.04h11.95v1.66h-10.13v6.95h9.49v1.66h-9.49v7.62h10.57v1.66h-12.39V152.04z"/>
		</g>
		<g>
			<path class="st1" d="M225.67,152.04h5.63c2.98,0,6.29,0.74,6.29,5.16c0,1.99-1.19,3.59-3.51,4.06v0.05
				c2.57,0.19,4.36,2.07,4.36,4.8c0,4.5-3.89,5.46-6.54,5.46h-6.24V152.04z M227.49,160.49h3.78c3.78,0,4.5-2.07,4.5-3.28
				c0-2.73-1.93-3.5-4.25-3.5h-4.03V160.49z M227.49,169.93h4.17c4.28,0,4.97-2.37,4.97-3.75c0-2.9-2.37-4.03-4.69-4.03h-4.44
				V169.93z"/>
			<path class="st1" d="M251.84,152.04h1.88l8.23,19.54h-2.04l-2.12-5.19h-10.35l-2.21,5.19h-1.9L251.84,152.04z M252.7,154.03
				l-4.55,10.71h8.97L252.7,154.03z"/>
			<path class="st1" d="M267.52,152.04h1.82v19.54h-1.82V152.04z"/>
			<path class="st1" d="M277.51,152.04h5.13c1.55,0,6.96,0,6.96,5.13c0,3.73-2.84,4.75-5,5.02l5.69,9.38h-2.07l-5.49-9.27h-3.39
				v9.27h-1.82V152.04z M279.33,160.65h3.86c3.84,0,4.58-2.12,4.58-3.48c0-1.35-0.74-3.48-4.58-3.48h-3.86V160.65z"/>
		</g>
		<g>
			<path class="st1" d="M297.96,152.04h6.05c10.16,0,10.57,8.34,10.57,9.77s-0.41,9.77-10.57,9.77h-6.05V152.04z M299.79,169.93
				h3.75c5.19,0,9.22-2.51,9.22-8.11s-4.03-8.11-9.22-8.11h-3.75V169.93z"/>
		</g>
		<g>
			<path class="st0" d="M23.62,185.52h1.3l5.7,13.54h-1.42l-1.47-3.6h-7.17l-1.53,3.6h-1.32L23.62,185.52z M24.22,186.9l-3.16,7.42
				h6.21L24.22,186.9z"/>
		</g>
		<g>
			<path class="st0" d="M39.95,185.52h3.56c1.07,0,4.82,0,4.82,3.56c0,2.58-1.97,3.29-3.46,3.48l3.94,6.5h-1.43l-3.81-6.43h-2.35
				v6.43h-1.26V185.52z M41.21,191.49h2.68c2.66,0,3.17-1.47,3.17-2.41c0-0.94-0.52-2.41-3.17-2.41h-2.68V191.49z"/>
		</g>
		<g>
			<path class="st0" d="M61.8,186.67h-4.63v-1.15h10.52v1.15h-4.63v12.39H61.8V186.67z"/>
		</g>
		<g>
			<path class="st0" d="M77.16,185.52h1.26v13.54h-1.26V185.52z"/>
			<path class="st0" d="M89.88,196.56c0.67,1.13,1.76,1.7,3.1,1.7c1.7,0,3.04-1.03,3.04-2.66c0-3.79-6.98-1.57-6.98-6.71
				c0-2.41,2.07-3.71,4.34-3.71c1.47,0,2.77,0.5,3.69,1.7l-1.09,0.78c-0.63-0.88-1.47-1.34-2.64-1.34c-1.62,0-3.04,0.84-3.04,2.56
				c0,4.07,6.98,1.63,6.98,6.71c0,2.45-2.01,3.8-4.21,3.8c-1.78,0-3.35-0.57-4.4-2.05L89.88,196.56z"/>
		</g>
		<g>
			<path class="st0" d="M110.52,186.67h-4.63v-1.15h10.52v1.15h-4.63v12.39h-1.26V186.67z"/>
		</g>
		<g>
			<path class="st0" d="M145.69,195.12l1.95-3.52h1.3l-2.45,4.32l3.08,3.23h-1.7l-2.03-2.18c-1.09,1.47-2.31,2.43-4.21,2.43
				c-2.3,0-4.13-1.53-4.13-3.94c0-2.1,1.53-3.04,3.1-4c-0.77-0.92-1.65-1.97-1.65-3.21c0-1.95,1.61-3.08,3.41-3.08
				c1.61,0,3.06,1.15,3.06,2.87c0,1.95-1.51,2.77-3.02,3.6L145.69,195.12z M141.33,192.27c-1.2,0.73-2.56,1.55-2.56,3.16
				c0,1.72,1.36,2.83,3.06,2.83c1.41,0,2.5-0.98,3.25-2.08L141.33,192.27z M140.22,188.24c0,0.94,0.88,1.95,1.45,2.62
				c1.07-0.56,2.49-1.28,2.49-2.72c0-1.07-0.8-1.82-1.89-1.82C141.14,186.33,140.22,187.11,140.22,188.24z"/>
		</g>
		<g>
			<path class="st0" d="M171.24,185.52h4.19c7.04,0,7.32,5.77,7.32,6.77c0,0.99-0.29,6.77-7.32,6.77h-4.19V185.52z M172.5,197.91
				h2.6c3.59,0,6.39-1.74,6.39-5.62c0-3.88-2.79-5.62-6.39-5.62h-2.6V197.91z"/>
		</g>
		<g>
			<path class="st0" d="M192.98,185.52h8.28v1.15h-7.02v4.82h6.58v1.15h-6.58v5.28h7.32v1.15h-8.59V185.52z"/>
			<path class="st0" d="M212.07,196.56c0.67,1.13,1.76,1.7,3.1,1.7c1.7,0,3.04-1.03,3.04-2.66c0-3.79-6.98-1.57-6.98-6.71
				c0-2.41,2.07-3.71,4.34-3.71c1.47,0,2.77,0.5,3.69,1.7l-1.09,0.78c-0.63-0.88-1.47-1.34-2.64-1.34c-1.62,0-3.04,0.84-3.04,2.56
				c0,4.07,6.98,1.63,6.98,6.71c0,2.45-2.01,3.8-4.21,3.8c-1.78,0-3.35-0.57-4.4-2.05L212.07,196.56z"/>
		</g>
		<g>
			<path class="st0" d="M229.73,185.52H231v13.54h-1.26V185.52z"/>
			<path class="st0" d="M253.23,198.18c-1.57,0.9-3.29,1.22-5.05,1.22c-4.13,0-7-2.98-7-7.11c0-4.13,2.87-7.11,7-7.11
				c2.01,0,3.63,0.61,4.88,1.87l-0.92,0.96c-0.82-0.99-2.48-1.68-3.96-1.68c-3.54,0-5.74,2.6-5.74,5.96c0,3.37,2.2,5.97,5.74,5.97
				c1.45,0,2.75-0.19,3.78-0.8v-4.55h-3.25v-1.15h4.51V198.18z"/>
			<path class="st0" d="M264.31,185.52h1.62l8.24,11.85h0.04v-11.85h1.26v13.54h-1.62l-8.24-11.85h-0.04v11.85h-1.26V185.52z"/>
		</g>
		<g>
			<path class="st0" d="M286.58,185.52h8.28v1.15h-7.02v4.82h6.58v1.15h-6.58v5.28h7.32v1.15h-8.59V185.52z"/>
		</g>
		<g>
			<path class="st0" d="M305.31,185.52h3.56c1.07,0,4.82,0,4.82,3.56c0,2.58-1.97,3.29-3.46,3.48l3.94,6.5h-1.43l-3.81-6.43h-2.35
				v6.43h-1.26V185.52z M306.57,191.49h2.68c2.66,0,3.17-1.47,3.17-2.41c0-0.94-0.52-2.41-3.17-2.41h-2.68V191.49z"/>
		</g>
	</g>
</g>
</svg>
